<?xml version="1.0" encoding="UTF-8" standalone="no"?>
<svg width="111px" height="32px" viewBox="0 0 111 32" version="1.1" xmlns="http://www.w3.org/2000/svg" xmlns:xlink="http://www.w3.org/1999/xlink" xmlns:sketch="http://www.bohemiancoding.com/sketch/ns">
    <!-- Generator: Sketch 3.5.1 (25234) - http://www.bohemiancoding.com/sketch -->
    <title>gooru</title>
    <desc>Created with Sketch.</desc>
    <defs>
        <linearGradient x1="0%" y1="50%" x2="97.3787371%" y2="50%" id="linearGradient-1">
            <stop stop-color="#4B9741" offset="0%"></stop>
            <stop stop-color="#4B9741" offset="62.1528338%"></stop>
            <stop stop-color="#0072BC" offset="65.8176987%"></stop>
            <stop stop-color="#0072BC" offset="100%"></stop>
        </linearGradient>
        <path d="M87.8408203,24.2133789 L83.7758789,24.0595703 L83.578125,24.3012695 C84.0322288,24.7553734 84.391112,25.3742637 84.6547852,26.157959 C84.9184583,26.9416543 85.050293,27.7875931 85.050293,28.6958008 C85.050293,31.083508 84.3142163,32.9255306 82.842041,34.2219238 C81.3698657,35.518317 79.2788221,36.1665039 76.5688477,36.1665039 C75.3530213,36.1665039 74.3056685,36.0126969 73.4267578,35.7050781 C72.313471,36.5546917 71.7568359,37.3896443 71.7568359,38.2099609 C71.7568359,38.7519558 71.863036,39.162108 72.0754395,39.4404297 C72.2878429,39.7187514 72.6394018,39.9165033 73.130127,40.0336914 C73.6208521,40.1508795 74.3642528,40.2094727 75.3603516,40.2094727 L80.6337891,40.2094727 C82.1865312,40.2094727 83.4536084,40.4511695 84.4350586,40.9345703 C85.4165088,41.4179712 86.1159647,42.066158 86.5334473,42.8791504 C86.9509298,43.6921427 87.159668,44.6406196 87.159668,45.7246094 C87.159668,47.1015694 86.7641641,48.3283638 85.9731445,49.4050293 C85.182125,50.4816948 84.0395583,51.3203095 82.5454102,51.9208984 C81.0512621,52.5214874 79.3081154,52.8217773 77.315918,52.8217773 C75.8364184,52.8217773 74.4851135,52.7338876 73.2619629,52.5581055 C72.0388122,52.3823233 70.9914594,52.0856954 70.119873,51.6682129 C69.2482867,51.2507303 68.5744653,50.7014194 68.0983887,50.0202637 C67.6223121,49.3391079 67.3842773,48.485845 67.3842773,47.4604492 C67.3842773,46.537593 67.6918915,45.6989784 68.3071289,44.9445801 C68.9223664,44.1901818 69.7939397,43.5273466 70.921875,42.9560547 C70.233395,42.677733 69.6914082,42.2675808 69.2958984,41.7255859 C68.9003886,41.183591 68.7026367,40.5463904 68.7026367,39.8139648 C68.7026367,38.9789997 68.9370094,38.2136265 69.4057617,37.5178223 C69.8745141,36.822018 70.7021425,36.0273482 71.8886719,35.1337891 C70.8339791,34.5185516 70.0319852,33.683599 69.482666,32.6289062 C68.9333469,31.5742135 68.6586914,30.3730536 68.6586914,29.0253906 C68.6586914,27.7656187 68.8674296,26.6706589 69.2849121,25.7404785 C69.7023947,24.8102981 70.2810022,24.0412628 71.020752,23.4333496 C71.7605017,22.8254364 72.6357371,22.3713394 73.6464844,22.0710449 C74.6572316,21.7707505 75.7485293,21.6206055 76.9204102,21.6206055 C77.9751029,21.6206055 79.0224557,21.7451159 80.0625,21.9941406 L87.8408203,21.9941406 L87.8408203,24.2133789 Z M72.5917969,28.6738281 C72.5917969,30.504892 72.9653283,31.9184521 73.7124023,32.9145508 C74.4594764,33.9106495 75.5361258,34.4086914 76.9423828,34.4086914 C77.6894569,34.4086914 78.3266575,34.2658706 78.8540039,33.9802246 C79.3813503,33.6945786 79.8098128,33.3027369 80.1394043,32.8046875 C80.4689958,32.3066381 80.7106926,31.7316927 80.864502,31.079834 C81.0183113,30.4279753 81.0952148,29.7431677 81.0952148,29.0253906 C81.0952148,27.7363217 80.9121112,26.6596723 80.5458984,25.7954102 C80.1796857,24.931148 79.6816438,24.2976094 79.0517578,23.8947754 C78.4218719,23.4919413 77.6967814,23.2905273 76.8764648,23.2905273 C75.4848563,23.2905273 74.4228552,23.7519485 73.6904297,24.6748047 C72.9580042,25.5976609 72.5917969,26.9306553 72.5917969,28.6738281 L72.5917969,28.6738281 Z M73.1411133,43.3515625 C72.3940392,43.9082059 71.8337421,44.4977996 71.4602051,45.1203613 C71.0866681,45.742923 70.8999023,46.4497031 70.8999023,47.2407227 C70.8999023,48.5590886 71.4235787,49.5295379 72.4709473,50.1520996 C73.5183158,50.7746613 75.1186416,51.0859375 77.2719727,51.0859375 C78.5903386,51.0859375 79.7219191,50.910158 80.666748,50.5585938 C81.611577,50.2070295 82.3330053,49.7016635 82.8310547,49.0424805 C83.3291041,48.3832975 83.578125,47.6142622 83.578125,46.7353516 C83.578125,46.3251933 83.526856,45.9260273 83.4243164,45.5378418 C83.3217768,45.1496563 83.127687,44.8017594 82.842041,44.4941406 C82.5563951,44.1865219 82.149905,43.941163 81.6225586,43.7580566 C81.0952122,43.5749503 80.4067425,43.4833984 79.5571289,43.4833984 L76.2832031,43.4833984 C75.0966738,43.4833984 74.0493209,43.4394536 73.1411133,43.3515625 L73.1411133,43.3515625 Z M99.9257812,43.3515625 C96.878891,43.3515625 94.5534748,42.4543547 92.9494629,40.6599121 C91.345451,38.8654695 90.543457,36.2104668 90.543457,32.6948242 C90.543457,30.2778199 90.9645954,28.2343833 91.8068848,26.5644531 C92.6491741,24.8945229 93.8027271,23.6530802 95.2675781,22.8400879 C96.7324292,22.0270955 98.4023344,21.6206055 100.277344,21.6206055 C103.412125,21.6206055 105.785148,22.5324616 107.396484,24.3562012 C109.007821,26.1799408 109.813477,28.7983228 109.813477,32.2114258 C109.813477,34.6430786 109.410649,36.6938393 108.60498,38.3637695 C107.799312,40.0336998 106.656746,41.2824666 105.177246,42.1101074 C103.697747,42.9377483 101.947276,43.3515625 99.9257812,43.3515625 L99.9257812,43.3515625 Z M94.6962891,32.2333984 C94.6962891,35.2509917 95.1760206,37.5690837 96.135498,39.1877441 C97.0949755,40.8064046 98.4682528,41.6157227 100.255371,41.6157227 C101.236821,41.6157227 102.071774,41.3776879 102.760254,40.9016113 C103.448734,40.4255347 104.009031,39.784672 104.441162,38.9790039 C104.873293,38.1733358 105.184569,37.2395073 105.375,36.1774902 C105.565431,35.1154732 105.660645,34.0058652 105.660645,32.8486328 C105.660645,30.6953017 105.42261,28.9082102 104.946533,27.4873047 C104.470457,26.0663991 103.82227,25.0227084 103.001953,24.3562012 C102.181637,23.6896939 101.244146,23.3564453 100.189453,23.3564453 C98.4169833,23.3564453 97.0583543,24.1254806 96.1135254,25.6635742 C95.1686964,27.2016678 94.6962891,29.3915874 94.6962891,32.2333984 L94.6962891,32.2333984 Z M123.810059,43.3515625 C120.763168,43.3515625 118.437752,42.4543547 116.83374,40.6599121 C115.229728,38.8654695 114.427734,36.2104668 114.427734,32.6948242 C114.427734,30.2778199 114.848873,28.2343833 115.691162,26.5644531 C116.533451,24.8945229 117.687004,23.6530802 119.151855,22.8400879 C120.616707,22.0270955 122.286612,21.6206055 124.161621,21.6206055 C127.296402,21.6206055 129.669426,22.5324616 131.280762,24.3562012 C132.892098,26.1799408 133.697754,28.7983228 133.697754,32.2114258 C133.697754,34.6430786 133.294926,36.6938393 132.489258,38.3637695 C131.68359,40.0336998 130.541023,41.2824666 129.061523,42.1101074 C127.582024,42.9377483 125.831553,43.3515625 123.810059,43.3515625 L123.810059,43.3515625 Z M118.580566,32.2333984 C118.580566,35.2509917 119.060298,37.5690837 120.019775,39.1877441 C120.979253,40.8064046 122.35253,41.6157227 124.139648,41.6157227 C125.121099,41.6157227 125.956051,41.3776879 126.644531,40.9016113 C127.333011,40.4255347 127.893308,39.784672 128.325439,38.9790039 C128.757571,38.1733358 129.068847,37.2395073 129.259277,36.1774902 C129.449708,35.1154732 129.544922,34.0058652 129.544922,32.8486328 C129.544922,30.6953017 129.306887,28.9082102 128.830811,27.4873047 C128.354734,26.0663991 127.706547,25.0227084 126.88623,24.3562012 C126.065914,23.6896939 125.128423,23.3564453 124.07373,23.3564453 C122.301261,23.3564453 120.942632,24.1254806 119.997803,25.6635742 C119.052974,27.2016678 118.580566,29.3915874 118.580566,32.2333984 L118.580566,32.2333984 Z M144.068848,25.6416016 L144.376465,25.7075195 C145.182133,24.7260693 145.929196,23.953372 146.617676,23.3894043 C147.306156,22.8254366 148.049557,22.38965 148.8479,22.0820312 C149.646244,21.7744125 150.550776,21.6206055 151.561523,21.6206055 C152.411137,21.6206055 153.180172,21.6645503 153.868652,21.7524414 L153.868652,26.8061523 L151.385742,26.8061523 C151.034178,26.0151328 150.660647,25.4401873 150.265137,25.0812988 C149.869627,24.7224103 149.32764,24.5429688 148.63916,24.5429688 C148.111814,24.5429688 147.588137,24.6967758 147.068115,25.0043945 C146.548093,25.3120133 146.046389,25.7587861 145.562988,26.3447266 C145.079587,26.930667 144.746339,27.4799779 144.563232,27.9926758 C144.380126,28.5053737 144.288574,29.1132777 144.288574,29.8164062 L144.288574,37.5068359 C144.288574,38.8398504 144.36914,39.7590307 144.530273,40.2644043 C144.691407,40.7697779 144.958738,41.1396473 145.332275,41.3740234 C145.705812,41.6083996 146.26611,41.7915032 147.013184,41.9233398 L147.013184,43 L138.158203,43 L138.158203,41.9233398 C138.714847,41.7475577 139.114012,41.5937507 139.355713,41.4619141 C139.597413,41.3300775 139.806151,41.1469738 139.981934,40.9125977 C140.157716,40.6782215 140.28955,40.3193384 140.377441,39.8359375 C140.465332,39.3525366 140.509277,38.5981497 140.509277,37.5727539 L140.509277,27.9926758 C140.509277,27.0551711 140.494629,26.3007841 140.465332,25.7294922 C140.436035,25.1582003 140.333497,24.7004412 140.157715,24.3562012 C139.981933,24.0119612 139.714601,23.7556161 139.355713,23.5871582 C138.996824,23.4187003 138.487796,23.2758795 137.828613,23.1586914 L137.828613,22.0161133 L142.970215,21.7963867 L144.310547,21.7963867 L144.068848,25.6416016 Z M156.219727,21.9941406 L162.481934,21.9941406 L162.481934,33.1782227 C162.481934,34.8920984 162.547851,36.1957963 162.679688,37.0893555 C162.811524,37.9829146 163.009276,38.656736 163.272949,39.1108398 C163.536622,39.5649437 163.910154,39.9457992 164.393555,40.253418 C164.876956,40.5610367 165.543453,40.7148438 166.393066,40.7148438 C166.94971,40.7148438 167.484372,40.6049816 167.99707,40.3852539 C168.509768,40.1655262 169.081052,39.7810086 169.710938,39.2316895 C170.340823,38.6823703 170.791258,38.1367215 171.062256,37.5947266 C171.333253,37.0527317 171.46875,36.4228552 171.46875,35.7050781 L171.46875,27.465332 C171.46875,26.6303669 171.446778,26.0004904 171.402832,25.5756836 C171.358886,25.1508768 171.285645,24.810304 171.183105,24.5539551 C171.080566,24.2976061 170.959717,24.088868 170.820557,23.9277344 C170.681396,23.7666008 170.483644,23.6201178 170.227295,23.4882812 C169.970946,23.3564447 169.557132,23.2172859 168.98584,23.0708008 L168.98584,21.9941406 L175.248047,21.9941406 L175.248047,37.0014648 C175.248047,38.1294002 175.270019,38.9423803 175.313965,39.4404297 C175.35791,39.9384791 175.453124,40.3339829 175.599609,40.6269531 C175.746094,40.9199233 175.973143,41.1579581 176.280762,41.3410645 C176.58838,41.5241708 177.137691,41.6962883 177.928711,41.8574219 L177.928711,43 L172.896973,43.2197266 L171.556641,43.2197266 L171.688477,39.6162109 L171.358887,39.5283203 C170.14306,40.8466863 168.982183,41.8134735 167.876221,42.4287109 C166.770258,43.0439484 165.66065,43.3515625 164.547363,43.3515625 C163.214349,43.3515625 162.115727,43.0878933 161.251465,42.5605469 C160.387203,42.0332005 159.742678,41.2458548 159.317871,40.1984863 C158.893064,39.1511178 158.680664,37.6753025 158.680664,35.7709961 L158.680664,27.465332 C158.680664,26.2348571 158.633057,25.3889183 158.537842,24.9274902 C158.442626,24.4660621 158.259523,24.0998549 157.988525,23.8288574 C157.717528,23.55786 157.127934,23.305177 156.219727,23.0708008 L156.219727,21.9941406 Z" id="path-2"></path>
    </defs>
    <g id="Page-1" stroke="none" stroke-width="1" fill="none" fill-rule="evenodd" sketch:type="MSPage">
        <g id="Real-Time" sketch:type="MSArtboardGroup" transform="translate(-67.000000, -21.000000)">
            <g id="gooru">
                <use fill="none" sketch:type="MSShapeGroup" xlink:href="#path-2"></use>
                <use fill="url(#linearGradient-1)" fill-rule="evenodd" xlink:href="#path-2"></use>
            </g>
        </g>
    </g>
</svg>