<?xml version="1.0" encoding="UTF-8" standalone="no"?>
<svg width="20px" height="15px" viewBox="0 0 20 15" version="1.1" xmlns="http://www.w3.org/2000/svg" xmlns:xlink="http://www.w3.org/1999/xlink">
    <!-- Generator: Sketch 3.6.1 (26313) - http://www.bohemiancoding.com/sketch -->
    <title>Assessment_Light</title>
    <desc>Created with Sketch.</desc>
    <defs></defs>
    <g id="StyleGuide" stroke="none" stroke-width="1" fill="none" fill-rule="evenodd">
        <g id="Style-Guide" transform="translate(-4132.000000, -596.000000)" fill="#37424B">
            <g id="Assessment_Light" transform="translate(4132.000000, 596.000000)">
                <path d="M0,1.99188419 C0,0.891796927 0.898212381,0 1.99079514,0 L18.0092049,0 C19.1086907,0 20,0.893397331 20,1.99188419 L20,13.0081158 C20,14.1082031 19.1017876,15 18.0092049,15 L1.99079514,15 C0.891309342,15 0,14.1066027 0,13.0081158 L0,1.99188419 Z M9.38016505,6.37831776 C9.74042718,5.96037383 9.93892233,5.39975078 9.93892233,4.79956386 C9.93892233,3.65682243 9.17578641,2.5 7.71697087,2.5 C7.03806796,2.5 6.4653301,2.7494081 6.06059223,3.22124611 C5.70207767,3.63925234 5.50468932,4.19975078 5.50468932,4.79956386 C5.50468932,5.94242991 6.26459223,7.09919003 7.71697087,7.09919003 C8.39840777,7.09922118 8.97365049,6.85 9.38016505,6.37831776 Z M7.71697087,3.56922118 C8.51628155,3.56922118 8.88030097,4.20741433 8.88030097,4.80037383 C8.88030097,5.12292835 8.77882524,5.42152648 8.59439806,5.64105919 C8.38865049,5.88626168 8.08964078,6.015919 7.72993204,6.015919 C6.91040777,6.015919 6.53706796,5.37778816 6.53706796,4.78489097 C6.53706796,4.17987539 6.90196117,3.56922118 7.71697087,3.56922118 Z M13.0225437,3.3871028 C12.8903398,3.38965732 12.7098447,3.47781931 12.6214175,3.5829595 L6.05881553,11.3870717 C5.97041748,11.4922741 6.03303883,11.6397508 6.16524272,11.6397508 L7.02417476,11.6397508 C7.15637864,11.6397508 7.33669903,11.5535202 7.42495146,11.4482243 L13.9469806,3.64570093 C14.0352039,3.54031153 14.0293495,3.36884735 13.8109029,3.36890966 L13.0225437,3.3871028 Z M12.3052524,7.97732087 C11.6394563,7.97732087 11.0775825,8.22211838 10.6805049,8.68495327 C10.328835,9.09485981 10.1350874,9.64479751 10.1350874,10.2332087 C10.1350874,11.3542056 10.8805437,12.4890343 12.3052816,12.4890343 C12.973932,12.4890343 13.5380777,12.244486 13.936932,11.781838 C14.2903786,11.3718069 14.4850291,10.821838 14.4850291,10.2332087 C14.485,9.11221184 13.7363107,7.97732087 12.3052524,7.97732087 Z M12.3181262,11.4538318 C11.5207961,11.4538318 11.1575049,10.8134268 11.1575049,10.2186916 C11.1575049,9.89479751 11.2589223,9.59507788 11.4432039,9.37470405 C11.6486311,9.12878505 11.9467087,8.9988162 12.3052816,8.9988162 C13.1026699,8.9988162 13.4657864,9.63909657 13.4657864,10.2340187 C13.4657864,10.5578505 13.3643398,10.8576324 13.1802039,11.0780062 C12.9747184,11.3238629 12.6766117,11.4538318 12.3181262,11.4538318 Z" id="Rectangle-22"></path>
            </g>
        </g>
    </g>
</svg>