<?xml version="1.0" encoding="UTF-8" standalone="no"?>
<svg width="35px" height="30px" viewBox="0 0 35 30" version="1.1" xmlns="http://www.w3.org/2000/svg" xmlns:xlink="http://www.w3.org/1999/xlink" xmlns:sketch="http://www.bohemiancoding.com/sketch/ns">
    <!-- Generator: Sketch 3.5.1 (25234) - http://www.bohemiancoding.com/sketch -->
    <title>AudioResource Copy</title>
    <desc>Created with Sketch.</desc>
    <defs></defs>
    <g id="Page-1" stroke="none" stroke-width="1" fill="none" fill-rule="evenodd" sketch:type="MSPage">
        <g id="Style-Guide" sketch:type="MSArtboardGroup" transform="translate(-3582.000000, -981.000000)" fill="#5d5d5d">
            <g id="AudioResource-Copy" sketch:type="MSLayerGroup" transform="translate(3582.000000, 981.000000)">
                <path d="M14.6021127,3.21251585 L7.18897962,8.43295258 L2.12368894,8.43295258 C0.950591849,8.43295258 0,9.42859621 0,10.6578232 L0,19.5024718 C0,20.731267 0.950591849,21.7277742 2.12368894,21.7277742 L7.29569973,21.7277742 L14.6021127,26.7875954 C15.6462391,27.3363651 16.5,26.784573 16.5,25.560959 L16.5,17.419651 L16.5,15.0000556 L16.5,12.5800285 L16.5,4.43958401 C16.5,3.21596994 15.6462391,2.66331433 14.6021127,3.21251585" id="Fill-1" sketch:type="MSShapeGroup"></path>
                <path d="M27.7853294,30 C27.3894801,30 26.9920661,29.8601345 26.6572371,29.5714214 C25.86945,28.889203 25.7356748,27.637685 26.3591766,26.7762506 C30.6223799,20.8809424 31.8740774,15.1798205 30.0786739,9.83114252 C28.7608711,5.9029331 26.1999763,3.55901023 26.1749424,3.5363409 C25.3938049,2.84471257 25.2729379,1.59233918 25.9054363,0.738176046 C26.5379347,-0.11641481 27.6828467,-0.248153541 28.4643753,0.443474795 C28.6004974,0.563665001 31.8142306,3.44865766 33.4958079,8.4598621 C35.0498686,13.0916761 35.5689319,20.4574965 29.2138291,29.2446409 C28.8543573,29.7412275 28.3223859,30 27.7853294,30" id="Fill-2" sketch:type="MSShapeGroup"></path>
                <path d="M21.9114725,22.5 C21.450097,22.5 20.9855269,22.3670354 20.5957992,22.0934039 C19.6762425,21.4476337 19.5206253,20.2618974 20.2475998,19.4446515 C25.5239839,13.5175915 20.8358423,9.75404428 20.2841083,9.34420517 C19.3723097,8.68911121 19.2376847,7.50621258 19.9751555,6.69626348 C20.7126262,5.88712514 22.0556809,5.7667273 22.9674795,6.42182127 C25.9803396,8.58817161 29.9853168,14.5873892 23.5780834,21.784099 C23.1586925,22.2547451 22.5380489,22.5 21.9114725,22.5" id="Fill-3" sketch:type="MSShapeGroup"></path>
            </g>
        </g>
    </g>
</svg>
