<svg xmlns="http://www.w3.org/2000/svg" width="18" height="18" viewBox="0 0 18 18">
    <path fill="none" fill-rule="evenodd" stroke="#FFF" d="M.5 9C.5 4.324 4.324.5 9 .5s8.5 3.824 8.5 8.5-3.824 8.5-8.5 8.5S.5 13.676.5 9zm8.2 4.5V13l-.5.5h.5zm.6 0h.5l-.5-.5v.5zm0 .6v.5l.5-.5h-.5zm-.6 0h-.5l.5.5v-.5zm0 0v-.6h.6v.6h-.6zm1.718-5.305l.678-.675c.382-.458.604-.988.604-1.52A2.71 2.71 0 0 0 9 3.9a2.712 2.712 0 0 0-2.653 2.2h.613A2.107 2.107 0 0 1 9 4.5c1.156 0 2.1.944 2.1 2.1 0 .637-.23 1.182-.613 1.46L9.49 9.135c-.491.43-.764 1.046-.787 1.764h.617c.078-.928.4-1.49 1.1-2.105z"/>
</svg>
