<?xml version="1.0" encoding="UTF-8" standalone="no"?>
<svg width="30px" height="30px" viewBox="0 0 30 30" version="1.1" xmlns="http://www.w3.org/2000/svg" xmlns:xlink="http://www.w3.org/1999/xlink" xmlns:sketch="http://www.bohemiancoding.com/sketch/ns">
    <!-- Generator: Sketch 3.5.1 (25234) - http://www.bohemiancoding.com/sketch -->
    <title>ImageResource Copy</title>
    <desc>Created with Sketch.</desc>
    <defs></defs>
    <g id="Page-1" stroke="none" stroke-width="1" fill="none" fill-rule="evenodd" sketch:type="MSPage">
        <g id="Style-Guide" sketch:type="MSArtboardGroup" transform="translate(-3478.000000, -1045.000000)" fill="#5d5d5d">
            <g id="ImageResource-Copy" sketch:type="MSLayerGroup" transform="translate(3478.000000, 1045.000000)">
                <path d="M26.1780999,30 L3.82109339,30 C1.7139054,30 0,28.2856912 0,26.1789066 L0,3.82190013 C0,1.71430876 1.7139054,0 3.82109339,0 L26.1780999,0 C28.2856912,0 30,1.71430876 30,3.82190013 L30,26.1789066 C30,28.2856912 28.2856912,30 26.1780999,30 Z M4.06747317,3 C3.47929782,3 3,3.47929782 3,4.06786765 L3,25.9325268 C3,26.5207022 3.47929782,27 4.06747317,27 L25.9321323,27 C26.5207022,27 27,26.5207022 27,25.9325268 L27,4.06786765 C27,3.47929782 26.5207022,3 25.9321323,3 L4.06747317,3 Z" id="Fill-1" sketch:type="MSShapeGroup"></path>
                <path d="M4.74136035,24.38194 C4.27329603,24.9965559 4.50732819,25.5 5.25890807,25.5 L24.6851996,25.5 C25.4388075,25.5 25.7207006,24.9602031 25.3134766,24.2999348 L19.9108625,15.5511678 C19.5032328,14.8921675 18.7407017,14.8126986 18.2166643,15.3744762 L14.919934,18.9032344 C14.3958967,19.465012 13.5668469,19.437536 13.0785025,18.8398283 L11.8312774,17.3125879 C11.3425274,16.7140347 10.560933,16.7288295 10.0932743,17.3434455 L4.74136035,24.38194" id="Fill-2" sketch:type="MSShapeGroup"></path>
                <path d="M10.5,9.75017508 C10.5,10.9925687 9.49256867,12 8.25017508,12 C7.00743133,12 6,10.9925687 6,9.75017508 C6,8.50743133 7.00743133,7.5 8.25017508,7.5 C9.49256867,7.5 10.5,8.50743133 10.5,9.75017508" id="Fill-3" sketch:type="MSShapeGroup"></path>
            </g>
        </g>
    </g>
</svg>
