<?xml version="1.0" encoding="UTF-8" standalone="no"?>
<svg width="34px" height="30px" viewBox="0 0 34 30" version="1.1" xmlns="http://www.w3.org/2000/svg" xmlns:xlink="http://www.w3.org/1999/xlink" xmlns:sketch="http://www.bohemiancoding.com/sketch/ns">
    <!-- Generator: Sketch 3.5.1 (25234) - http://www.bohemiancoding.com/sketch -->
    <title>Imported EPS Copy 2</title>
    <desc>Created with Sketch.</desc>
    <defs></defs>
    <g id="Page-1" stroke="none" stroke-width="1" fill="none" fill-rule="evenodd" sketch:type="MSPage">
        <g id="Style-Guide" sketch:type="MSArtboardGroup" transform="translate(-3478.000000, -1119.000000)" fill="#5d5d5d">
            <g id="Imported-EPS-Copy-2" sketch:type="MSLayerGroup" transform="translate(3478.000000, 1119.000000)">
                <g id="Page-1" sketch:type="MSShapeGroup">
                    <path d="M33.0484337,15.3437349 C33.069759,14.3439759 32.5691566,13.3648193 31.596506,12.4948193 C31.6207229,12.3636145 31.633012,12.2345783 31.633012,12.1055422 C31.633012,10.839759 30.6028916,9.81036145 29.336747,9.81036145 C28.766747,9.81036145 28.2285542,10.0210843 27.81,10.3991566 C27.1680723,10.1627711 26.4538554,9.94048193 25.6796386,9.73554217 C26.97,4.99915663 26.5557831,1.66156627 24.5212048,0.537831325 C24.0686747,0.287710843 23.5568675,0.160843373 22.9995181,0.160843373 C21.2085542,0.160843373 18.9303614,1.51843373 16.5466265,3.99686747 C14.1636145,1.51192771 11.8857831,0.150722892 10.0944578,0.150722892 C9.54,0.150722892 9.02963855,0.27686747 8.57746988,0.525542169 C7.79277108,0.95746988 6.85156627,1.95903614 6.6986747,4.27879518 C5.87204819,4.63554217 5.30674699,5.46433735 5.30674699,6.38674699 C5.30674699,7.4913253 6.09722892,8.42060241 7.14325301,8.63493976 C7.20180723,8.89987952 7.26325301,9.15795181 7.32795181,9.41204819 C2.72710843,10.483012 0.0762650602,12.3744578 0.0278313253,14.6421687 C-0.0126506024,16.539759 1.79204819,18.2757831 5.10903614,19.5296386 C5.79,19.7880723 6.56024096,20.0306024 7.40421687,20.2536145 C7.31421687,20.5821687 7.23325301,20.903494 7.16024096,21.2150602 C6.10518072,21.4221687 5.30674699,22.3543373 5.30674699,23.4690361 C5.30674699,24.3943373 5.85180723,25.2057831 6.67481928,25.5661446 C6.79771084,27.9733735 7.7526506,29.0063855 8.5546988,29.4498795 C9.00759036,29.6992771 9.51975904,29.8261446 10.076747,29.8261446 C11.8677108,29.8261446 14.1459036,28.4685542 16.5296386,25.9904819 C18.9122892,28.4746988 21.1901205,29.8359036 22.9821687,29.8359036 C23.5366265,29.8359036 24.046988,29.709759 24.4991566,29.4618072 C26.4827711,28.370241 26.9306024,25.1461446 25.7508434,20.5738554 C30.3498795,19.5025301 33,17.6110843 33.0484337,15.3437349 L33.0484337,15.3437349 Z M23.6031325,27.8324096 C23.4292771,27.9285542 23.2203614,27.9766265 22.9821687,27.9766265 C21.7091566,27.9766265 19.83,26.7477108 17.7871084,24.5884337 C18.6054217,23.6161446 19.4150602,22.5328916 20.2001205,21.36 C21.4984337,21.2761446 22.7486747,21.1344578 23.926988,20.9371084 C24.9806024,24.9672289 24.5154217,27.3303614 23.6031325,27.8324096 L23.6031325,27.8324096 Z M10.076747,27.966506 C9.83710843,27.966506 9.62746988,27.9177108 9.45289157,27.8215663 C8.92626506,27.5309639 8.60493976,26.7368675 8.53337349,25.5657831 C9.34590361,25.203253 9.89927711,24.3827711 9.89927711,23.4690361 C9.89927711,22.7309639 9.55301205,22.0586747 8.97253012,21.6310843 C9.04409639,21.3242169 9.12506024,21.0054217 9.21542169,20.6772289 C10.3398795,20.9042169 11.533012,21.083494 12.7720482,21.2121687 C13.5849398,22.4414458 14.4245783,23.5738554 15.2750602,24.5862651 C13.2303614,26.7401205 11.3508434,27.966506 10.076747,27.966506 L10.076747,27.966506 Z M9.47421687,2.15457831 C9.64771084,2.05879518 9.85626506,2.01036145 10.0944578,2.01036145 C11.3681928,2.01036145 13.246988,3.23927711 15.2898795,5.39891566 C14.473012,6.36903614 13.6637349,7.4526506 12.8772289,8.62771084 C11.5810843,8.71120482 10.3322892,8.85253012 9.15433735,9.04915663 C9.0853012,8.78313253 9.02024096,8.51240964 8.95807229,8.23337349 C9.54072289,7.80578313 9.89927711,7.11939759 9.89927711,6.38674699 C9.89927711,5.46939759 9.36578313,4.66590361 8.55759036,4.30012048 C8.64433735,3.19012048 8.96457831,2.4346988 9.47421687,2.15457831 L9.47421687,2.15457831 Z M22.9995181,2.02012048 C23.2380723,2.02012048 23.4480723,2.06927711 23.6226506,2.16542169 C24.563494,2.68481928 25.016747,5.13325301 23.8706024,9.31192771 C22.7407229,9.08385542 21.5443373,8.90349398 20.3045783,8.77481928 C19.4916867,7.54626506 18.6520482,6.41385542 17.8019277,5.40072289 C19.8462651,3.24650602 21.7261446,2.02012048 22.9995181,2.02012048 L22.9995181,2.02012048 Z M10.8943373,11.876747 C10.7353012,12.1648193 10.5766265,12.4622892 10.4121687,12.7792771 C10.1479518,12.1254217 9.90903614,11.4809639 9.69795181,10.8513253 C10.3214458,10.7515663 10.966988,10.6680723 11.6284337,10.6004819 C11.3728916,11.0284337 11.1296386,11.4509639 10.8943373,11.876747 L10.8943373,11.876747 Z M9.7673494,18.8924096 C9.95855422,18.3426506 10.1725301,17.7766265 10.4081928,17.1983133 C10.5712048,17.5145783 10.7295181,17.8120482 10.8889157,18.1022892 C11.0833735,18.4550602 11.2872289,18.8128916 11.5051807,19.1819277 C10.9022892,19.0966265 10.3218072,18.999759 9.7673494,18.8924096 L9.7673494,18.8924096 Z M11.3833735,14.9898795 C11.750241,14.2236145 12.1326506,13.479759 12.5219277,12.7756627 C12.9480723,12.003253 13.4179518,11.2171084 13.9207229,10.4349398 C14.8312048,10.3959036 15.7254217,10.3854217 16.6359036,10.4060241 C17.4928916,10.4244578 18.3643373,10.4696386 19.2285542,10.5404819 C19.7078313,11.2948193 20.1549398,12.0473494 20.5583133,12.7807229 C20.9587952,13.5093976 21.3412048,14.2539759 21.696506,14.9974699 C21.3415663,15.7384337 20.9580723,16.4822892 20.5550602,17.2120482 C20.1307229,17.9804819 19.6608434,18.766988 19.1555422,19.5531325 C18.2562651,19.5918072 17.3562651,19.6015663 16.4407229,19.5809639 C15.5844578,19.5628916 14.7133735,19.5177108 13.846988,19.4468675 C13.3680723,18.6925301 12.9213253,17.94 12.5179518,17.2062651 C12.1286747,16.4978313 11.7473494,15.7536145 11.3833735,14.9898795 L11.3833735,14.9898795 Z M21.4481928,19.3872289 C21.7037349,18.9596386 21.946988,18.536747 22.1819277,18.1109639 C22.3460241,17.8142169 22.5090361,17.510241 22.6713253,17.2004819 C22.936988,17.856506 23.176988,18.5031325 23.3887952,19.1353012 C22.7598795,19.2357831 22.1114458,19.3196386 21.4481928,19.3872289 L21.4481928,19.3872289 Z M23.3150602,11.0956627 C23.1224096,11.6533735 22.9084337,12.2215663 22.6742169,12.7959036 C22.5140964,12.4875904 22.3514458,12.183253 22.1873494,11.8846988 C21.9921687,11.5301205 21.7875904,11.1722892 21.5714458,10.8050602 C22.1750602,10.8907229 22.7577108,10.9875904 23.3150602,11.0956627 L23.3150602,11.0956627 Z M16.6756627,8.54710843 C16.3503614,8.54024096 16.0279518,8.53698795 15.7073494,8.53698795 C15.5421687,8.53698795 15.376988,8.53807229 15.2121687,8.53987952 C15.6455422,7.9453012 16.0912048,7.37240964 16.5448193,6.82662651 C17.01,7.38831325 17.4668675,7.97891566 17.9121687,8.59373494 C17.4780723,8.57096386 17.0681928,8.55578313 16.6756627,8.54710843 L16.6756627,8.54710843 Z M7.85710843,11.2037349 C8.2626506,12.4481928 8.75746988,13.7183133 9.33108434,14.9884337 C8.7986747,16.1616867 8.33421687,17.3309639 7.94674699,18.4742169 C7.13927711,18.2627711 6.4073494,18.0336145 5.76650602,17.7907229 C3.35204819,16.8773494 1.86542169,15.6860241 1.88710843,14.6812048 C1.91457831,13.3698795 4.24048193,12.0242169 7.85710843,11.2037349 L7.85710843,11.2037349 Z M16.4016867,21.4398795 C16.8925301,21.4503614 17.3790361,21.4525301 17.8648193,21.4474699 C17.4310843,22.0424096 16.9854217,22.6149398 16.5321687,23.1607229 C16.0662651,22.5979518 15.6090361,22.0077108 15.1644578,21.393253 C15.5974699,21.4163855 16.0040964,21.4315663 16.4016867,21.4398795 L16.4016867,21.4398795 Z M25.226747,18.7839759 C24.8251807,17.553253 24.3289157,16.2831325 23.7480723,14.9985542 C24.2851807,13.8162651 24.7507229,12.6473494 25.1345783,11.5142169 C25.8245783,11.6945783 26.4625301,11.8901205 27.0408434,12.0972289 L27.0408434,12.1055422 C27.0408434,13.3720482 28.0706024,14.4025301 29.336747,14.4025301 C29.7701205,14.4025301 30.1861446,14.2825301 30.5457831,14.0580723 C30.8913253,14.4054217 31.1989157,14.8456627 31.1891566,15.3046988 C31.1616867,16.6178313 28.8386747,17.9642169 25.226747,18.7839759 L25.226747,18.7839759 Z" id="Fill-1"></path>
                </g>
            </g>
        </g>
    </g>
</svg>
