<svg xmlns="http://www.w3.org/2000/svg" xmlns:xlink="http://www.w3.org/1999/xlink" width="20" height="20" viewBox="0 0 20 20">
    <defs>
        <path id="a" d="M28 510a9 9 0 1 1 0-18 9 9 0 0 1 0 18zm4.018-10.34a1.34 1.34 0 0 0-1.227.804h-1.564a1.34 1.34 0 0 0-1.227-.803 1.34 1.34 0 0 0-1.227.803H25.21a1.34 1.34 0 0 0-2.566.536 1.34 1.34 0 0 0 2.566.536h1.564a1.34 1.34 0 0 0 1.227.803 1.34 1.34 0 0 0 1.227-.803h1.564a1.34 1.34 0 0 0 2.566-.536c0-.74-.6-1.34-1.34-1.34z"/>
    </defs>
    <g fill="none" fill-rule="evenodd" transform="translate(-18 -491)">
        <use fill="#FFF" xlink:href="#a"/>
        <path stroke="#C4C4C4" d="M28 510.5a9.5 9.5 0 1 1 0-19 9.5 9.5 0 0 1 0 19zm4.018-10.34a.84.84 0 0 0-.77.507l-.132.297h-2.215l-.131-.297a.84.84 0 0 0-.77-.506.84.84 0 0 0-.77.506l-.131.297h-2.215l-.132-.297a.84.84 0 0 0-1.61.333.84.84 0 0 0 1.61.333l.132-.297h2.215l.131.297a.84.84 0 0 0 .77.506.84.84 0 0 0 .77-.506l.131-.297h2.215l.132.297a.84.84 0 0 0 1.61-.333.84.84 0 0 0-.84-.84z"/>
    </g>
</svg>
