<?xml version="1.0" encoding="UTF-8" standalone="no"?>
<svg width="30px" height="30px" viewBox="0 0 30 30" version="1.1" xmlns="http://www.w3.org/2000/svg" xmlns:xlink="http://www.w3.org/1999/xlink" xmlns:sketch="http://www.bohemiancoding.com/sketch/ns">
    <!-- Generator: Sketch 3.5.1 (25234) - http://www.bohemiancoding.com/sketch -->
    <title>QuestionResource Copy</title>
    <desc>Created with Sketch.</desc>
    <defs></defs>
    <g id="Page-1" stroke="none" stroke-width="1" fill="none" fill-rule="evenodd" sketch:type="MSPage">
        <g id="Style-Guide" sketch:type="MSArtboardGroup" transform="translate(-3479.000000, -980.000000)">
            <g id="QuestionResource-Copy" sketch:type="MSLayerGroup" transform="translate(3479.000000, 980.000000)">
                <path d="M14.94,29.901 C6.74828571,29.901 0.084,23.2367143 0.084,15.0445714 C0.084,6.85328571 6.74828571,0.189 14.94,0.189 C23.1317143,0.189 29.7955714,6.85328571 29.7955714,15.0445714 C29.7955714,23.2367143 23.1317143,29.901 14.94,29.901 L14.94,29.901 Z M14.9400084,3.61642857 C8.63822903,3.61642857 3.51121429,8.74334343 3.51121429,15.0445547 C3.51121429,21.3466566 8.63822903,26.4735714 14.9400084,26.4735714 C21.2417877,26.4735714 26.3683571,21.3466566 26.3683571,15.0445547 C26.3683571,8.74334343 21.2417877,3.61642857 14.9400084,3.61642857 L14.9400084,3.61642857 Z" id="Fill-1" fill="#5d5d5d" sketch:type="MSShapeGroup"></path>
                <path d="M14.8624286,21.2027143 C14.4612857,21.2027143 14.1171429,21.3462857 13.8377143,21.6261429 C13.5561429,21.9064286 13.4151429,22.2518571 13.4151429,22.6521429 C13.4151429,23.052 13.5561429,23.3978571 13.8377143,23.6751429 C14.1171429,23.9592857 14.4612857,24.099 14.8624286,24.099 C15.2622857,24.099 15.606,23.9592857 15.8858571,23.6777143 C16.1682857,23.3978571 16.3097143,23.052 16.3097143,22.6521429 C16.3097143,22.2518571 16.1682857,21.9064286 15.8858571,21.6261429 C15.606,21.3462857 15.2622857,21.2027143 14.8624286,21.2027143" id="Fill-2" fill="#5d5d5d" sketch:type="MSShapeGroup"></path>
                <path d="M18.444,7.863 C17.4595714,6.879 16.2552857,6.38057143 14.8624286,6.38057143 C13.4687143,6.38057143 12.2627143,6.879 11.2808571,7.863 C10.2972857,8.84657143 9.79842857,10.0517143 9.79842857,11.4437143 C9.79842857,11.7304286 9.90171429,11.9798571 10.1061429,12.1838571 C10.5137143,12.591 11.1758571,12.594 11.5838571,12.1838571 C11.787,11.9785714 11.8907143,11.7304286 11.8907143,11.4437143 C11.8907143,10.6131429 12.1752857,9.92442857 12.7602857,9.34114286 C13.3431429,8.75785714 14.0292857,8.47414286 14.8624286,8.47414286 C15.693,8.47414286 16.3817143,8.75785714 16.9641429,9.34114286 C17.5474286,9.92442857 17.8328571,10.6131429 17.8328571,11.4437143 C17.8328571,12.276 17.5474286,12.9655714 16.9667143,13.5458571 L15.303,15.0887143 C14.3172857,16.0765714 13.8145714,17.283 13.8145714,18.675 C13.8145714,18.963 13.9195714,19.2111429 14.1227143,19.4142857 C14.325,19.6161429 14.5735714,19.722 14.8624286,19.722 C15.1504286,19.722 15.3981429,19.6161429 15.6004286,19.4142857 C15.8035714,19.2111429 15.9085714,18.963 15.9085714,18.675 C15.9085714,17.8427143 16.194,17.1548571 16.7742857,16.5737143 L18.4388571,15.0325714 C19.4267143,14.0417143 19.926,12.837 19.926,11.4437143 C19.926,10.0517143 19.4267143,8.84657143 18.444,7.863" id="Fill-3" fill="#5d5d5d" sketch:type="MSShapeGroup"></path>
            </g>
        </g>
    </g>
</svg>
