<?xml version="1.0" encoding="UTF-8" standalone="no"?>
<svg width="31px" height="30px" viewBox="0 0 31 30" version="1.1" xmlns="http://www.w3.org/2000/svg" xmlns:xlink="http://www.w3.org/1999/xlink" xmlns:sketch="http://www.bohemiancoding.com/sketch/ns">
    <!-- Generator: Sketch 3.5.1 (25234) - http://www.bohemiancoding.com/sketch -->
    <title>TextResource Copy</title>
    <desc>Created with Sketch.</desc>
    <defs></defs>
    <g id="Page-1" stroke="none" stroke-width="1" fill="none" fill-rule="evenodd" sketch:type="MSPage">
        <g id="Style-Guide" sketch:type="MSArtboardGroup" transform="translate(-3579.000000, -915.000000)" fill="#5d5d5d">
            <g id="TextResource-Copy" sketch:type="MSLayerGroup" transform="translate(3579.000000, 915.000000)">
                <g id="Page-1" sketch:type="MSShapeGroup">
                    <path d="M26.2788,29.8184 L4.1084,29.8184 C2.0188,29.8184 0.3192,28.1184 0.3192,26.0288 L0.3192,3.8588 C0.3192,1.7688 2.0188,0.0688 4.1084,0.0688 L26.2788,0.0688 C28.3688,0.0688 30.0688,1.7688 30.0688,3.8588 L30.0688,26.0288 C30.0688,28.1184 28.3688,29.8184 26.2788,29.8184 L26.2788,29.8184 Z M4.1084,2.7756 C3.512,2.7756 3.026,3.2616 3.026,3.8588 L3.026,26.0288 C3.026,26.6252 3.512,27.1112 4.1084,27.1112 L26.2788,27.1112 C26.8756,27.1112 27.3616,26.6252 27.3616,26.0288 L27.3616,3.8588 C27.3616,3.2616 26.8756,2.7756 26.2788,2.7756 L4.1084,2.7756 L4.1084,2.7756 Z" id="Fill-1"></path>
                    <path d="M22.6153846,9 L7.38461538,9 C6.48942158,9 6,8.66425 6,8.25 C6,7.83575 6.48942158,7.5 7.38461538,7.5 L22.6153846,7.5 C23.5105784,7.5 24,7.83575 24,8.25 C24,8.66425 23.5105784,9 22.6153846,9" id="Fill-3"></path>
                    <path d="M22.6153846,13.5 L7.38461538,13.5 C6.48942158,13.5 6,13.16425 6,12.75 C6,12.33575 6.48942158,12 7.38461538,12 L22.6153846,12 C23.5105784,12 24,12.33575 24,12.75 C24,13.16425 23.5105784,13.5 22.6153846,13.5" id="Fill-4"></path>
                    <path d="M22.6153846,18 L7.38461538,18 C6.48942158,18 6,17.6645 6,17.25 C6,16.83575 6.48942158,16.5 7.38461538,16.5 L22.6153846,16.5 C23.5105784,16.5 24,16.83575 24,17.25 C24,17.6645 23.5105784,18 22.6153846,18" id="Fill-5"></path>
                    <path d="M22.6153846,22.5 L7.38461538,22.5 C6.48942158,22.5 6,22.16425 6,21.75 C6,21.3355 6.48942158,21 7.38461538,21 L22.6153846,21 C23.5105784,21 24,21.3355 24,21.75 C24,22.16425 23.5105784,22.5 22.6153846,22.5" id="Fill-6"></path>
                </g>
            </g>
        </g>
    </g>
</svg>
