<svg xmlns="http://www.w3.org/2000/svg" width="10" height="16" viewBox="0 0 10 16">
    <path fill="#FFF" fill-rule="evenodd" d="M0 10.157a4.84 4.84 0 0 0 4.87 4.87 4.84 4.84 0 0 0 4.87-4.87V7.374H0v2.783zm7.722-8.07l1.46-1.46L8.627.07l-1.6 1.6a4.519 4.519 0 0 0-2.156-.557c-.766 0-1.53.209-2.157.487L1.113 0 .557.626l1.46 1.461C.765 2.922 0 4.383 0 5.983v.695h9.74v-.695c0-1.6-.766-3.061-2.018-3.896zm-4.94 3.2c-.417 0-.695-.278-.695-.696 0-.417.278-.695.696-.695.417 0 .695.278.695.695 0 .418-.278.696-.695.696zm4.175 0c-.418 0-.696-.278-.696-.696 0-.417.278-.695.696-.695.417 0 .695.278.695.695 0 .418-.278.696-.695.696z" opacity=".25"/>
</svg>
