<?xml version="1.0" encoding="UTF-8" standalone="no"?>
<svg width="30px" fill="#5d5d5d" height="30px" viewBox="0 0 30 30" version="1.1" xmlns="http://www.w3.org/2000/svg" xmlns:xlink="http://www.w3.org/1999/xlink" xmlns:sketch="http://www.bohemiancoding.com/sketch/ns">
    <!-- Generator: Sketch 3.5.1 (25234) - http://www.bohemiancoding.com/sketch -->
    <title>VideoResource Copy</title>
    <desc>Created with Sketch.</desc>
    <defs></defs>
    <g id="Page-1" stroke="none" stroke-width="1" fill="#5d5d5d" fill-rule="evenodd" sketch:type="MSPage">
        <g id="Style-Guide" sketch:type="MSArtboardGroup" transform="translate(-3481.000000, -916.000000)">
            <g id="VideoResource-Copy" sketch:type="MSLayerGroup" transform="translate(3481.000000, 916.000000)">
                <path d="M5.74997871,24 L2.85714286,24 L2.85714286,25.5 L6.0712927,25.5 C6.39705955,25.9554007 6.91572524,26.25 7.5,26.25 C8.08427476,26.25 8.60294045,25.9554007 8.9287073,25.5 L26.8571429,25.5 L26.8571429,24 L9.25002129,24 C9.08463272,23.1439019 8.36406078,22.5 7.5,22.5 C6.63593922,22.5 5.91536728,23.1439019 5.74997871,24 Z M30,28.5 C30,29.1268705 29.2133793,30 28.5714286,30 L1.42857143,30 C0.787448276,30 0,29.1268705 0,28.5 L0,1.5 C0,0.871262794 0.787448276,0 1.42857143,0 L28.5714286,0 C29.2133793,0 30,0.871262794 30,1.5 L30,28.5 Z M3,3 L27.2857143,3 L27.2857143,21 L3,21 L3,3 Z" id="Fill-1" fill="#5d5d5d" sketch:type="MSShapeGroup"></path>
                <g id="Fill-3-+-Fill-4" fill="#5d5d5d" transform="translate(1.846154, 22.500000)"></g>
                <path d="M12,9 C12,9.07838527 12.508437,8.81637488 13.6875,9 L18.75,12.375 C18.9055841,12.1121162 18.9055841,12.6375344 18.75,12.375 L13.6875,15.75 C12.508437,15.9336251 12,15.6716147 12,15.75 L12,9" id="Fill-15" fill="#5d5d5d" sketch:type="MSShapeGroup"></path>
            </g>
        </g>
    </g>
</svg>
