<?xml version="1.0" encoding="UTF-8" standalone="no"?>
<svg width="24px" height="25px" viewBox="0 0 24 25" version="1.1" xmlns="http://www.w3.org/2000/svg" xmlns:xlink="http://www.w3.org/1999/xlink" xmlns:sketch="http://www.bohemiancoding.com/sketch/ns">
    <!-- Generator: Sketch 3.5.1 (25234) - http://www.bohemiancoding.com/sketch -->
    <title>Imported EPS Copy 4</title>
    <desc>Created with Sketch.</desc>
    <defs></defs>
    <g id="Page-1" stroke="none" stroke-width="1" fill="none" fill-rule="evenodd" sketch:type="MSPage">
        <g id="Player-End-Page" sketch:type="MSArtboardGroup" transform="translate(-352.000000, -447.000000)" fill="#5d5d5d">
            <g id="Imported-EPS-Copy-4" sketch:type="MSLayerGroup" transform="translate(352.000000, 447.000000)">
                <g id="Page-1" sketch:type="MSShapeGroup">
                    <path d="M11.9737846,24.0369231 C5.42621538,24.0369231 0.0996923077,18.7100308 0.0996923077,12.1624615 C0.0996923077,5.61526154 5.42621538,0.288369231 11.9737846,0.288369231 C18.5209846,0.288369231 23.8478769,5.61526154 23.8478769,12.1624615 C23.8478769,18.7100308 18.5209846,24.0369231 11.9737846,24.0369231 L11.9737846,24.0369231 Z M11.9737846,1.94990769 C6.34264615,1.94990769 1.76123077,6.53169231 1.76123077,12.1624615 C1.76123077,17.7936 6.34264615,22.3753846 11.9737846,22.3753846 C17.6049231,22.3753846 22.1863385,17.7936 22.1863385,12.1624615 C22.1863385,6.53169231 17.6049231,1.94990769 11.9737846,1.94990769 L11.9737846,1.94990769 Z" id="Fill-1"></path>
                    <path d="M11.1430154,1.11913846 L12.8045538,1.11913846 L12.8045538,23.2057846 L11.1430154,23.2057846 L11.1430154,1.11913846 Z" id="Fill-2"></path>
                    <path d="M9.73329231,23.6222769 C-1.26646154,10.4795077 9.71446154,0.705230769 9.82633846,0.608492308 L10.9148308,1.86387692 L10.3705846,1.23618462 L10.9155692,1.86313846 C10.5090462,2.2176 1.07298462,10.6855385 11.0078769,22.5555692 L9.73329231,23.6222769" id="Fill-3"></path>
                    <path d="M14.2423385,23.7160615 L13.1542154,22.4606769 L13.6984615,23.0883692 L13.1531077,22.4614154 C13.56,22.1069538 22.9956923,13.6386462 13.0611692,1.76898462 L14.3353846,0.702276923 C25.3351385,13.8450462 14.3545846,23.6193231 14.2423385,23.7160615" id="Fill-4"></path>
                    <path d="M2.68172308,6.32123077 L21.6546462,6.32123077 L21.6546462,7.98276923 L2.68172308,7.98276923 L2.68172308,6.32123077 Z" id="Fill-5"></path>
                    <path d="M2.68172308,16.1479385 L21.6546462,16.1479385 L21.6546462,17.8094769 L2.68172308,17.8094769 L2.68172308,16.1479385 Z" id="Fill-6"></path>
                    <path d="M0.941169231,11.3316923 L23.0171077,11.3316923 L23.0171077,12.9932308 L0.941169231,12.9932308 L0.941169231,11.3316923 Z" id="Fill-7"></path>
                </g>
            </g>
        </g>
    </g>
</svg>
